# https://github.com/mikedh/trimesh
v -0.38794667 -0.33855253 -0.30802527
v -0.30802527 -0.38794667 -0.33855253
v -0.33855253 -0.30802527 -0.38794667
v -0.50410676 -0.31155509 -0.09386068
v -0.45519137 -0.36409509 -0.14225179
v -0.46812263 -0.37214375 -0.04868511
v -0.30967298 -0.47007102 -0.20769180
v -0.34275100 -0.47558954 -0.12781373
v -0.36938521 -0.47030583 -0.04865178
v -0.38844714 -0.42138591 -0.17760275
v -0.42426407 -0.36090058 -0.22304882
v -0.35267115 -0.41291457 -0.25519523
v -0.41626829 -0.42122787 -0.09637322
v -0.47007102 -0.20769180 -0.30967298
v -0.47558954 -0.12781373 -0.34275100
v -0.47030583 -0.04865178 -0.36938521
v -0.41291457 -0.25519523 -0.35267115
v -0.42138591 -0.17760275 -0.38844714
v -0.36090058 -0.22304882 -0.42426407
v -0.36409509 -0.14225179 -0.45519137
v -0.31155509 -0.09386068 -0.50410676
v -0.37214375 -0.04868511 -0.46812263
v -0.42122787 -0.09637322 -0.41626829
v -0.54974651 -0.15844965 -0.18075533
v -0.50634688 -0.23016824 -0.22502314
v -0.45476127 -0.28105792 -0.27239430
v -0.48541018 -0.30000001 -0.18541020
v -0.51760107 -0.15593515 -0.26033315
v -0.53460389 -0.23171243 -0.14320616
v -0.54778951 -0.23976423 -0.04939415
v -0.57063389 -0.15771933 -0.09747591
v -0.55458277 -0.07899322 -0.21493727
v -0.51895761 -0.07872023 -0.29066497
v -0.57983553 -0.07967549 -0.13207021
v -0.59261298 -0.07984266 -0.04934548
v -0.20769180 -0.30967298 -0.47007102
v -0.25519523 -0.35267115 -0.41291457
v -0.17760275 -0.38844714 -0.42138591
v -0.22304882 -0.42426407 -0.36090058
v -0.14225179 -0.45519137 -0.36409509
v -0.09386068 -0.50410676 -0.31155509
v -0.04868511 -0.46812263 -0.37214375
v -0.12781373 -0.34275100 -0.47558954
v -0.04865178 -0.36938521 -0.47030583
v -0.09637322 -0.41626829 -0.42122787
v -0.27239430 -0.45476127 -0.28105792
v -0.22502314 -0.50634688 -0.23016824
v -0.26033315 -0.51760107 -0.15593515
v -0.18075533 -0.54974651 -0.15844965
v -0.18541020 -0.48541018 -0.30000001
v -0.29066497 -0.51895761 -0.07872023
v -0.21493727 -0.55458277 -0.07899322
v -0.14320616 -0.53460389 -0.23171243
v -0.09747591 -0.57063389 -0.15771933
v -0.04939415 -0.54778951 -0.23976423
v -0.13207021 -0.57983553 -0.07967549
v -0.04934548 -0.59261298 -0.07984266
v -0.28105792 -0.27239430 -0.45476127
v -0.23016824 -0.22502314 -0.50634688
v -0.30000001 -0.18541020 -0.48541018
v -0.15593515 -0.26033315 -0.51760107
v -0.15844965 -0.18075533 -0.54974651
v -0.23171243 -0.14320616 -0.53460389
v -0.23976423 -0.04939415 -0.54778951
v -0.15771933 -0.09747591 -0.57063389
v -0.07872023 -0.29066497 -0.51895761
v -0.07899322 -0.21493727 -0.55458277
v -0.07967549 -0.13207021 -0.57983553
v -0.07984266 -0.04934548 -0.59261298
v -0.51039046 -0.31543866 0.00000000
v -0.46812263 -0.37214375 0.04868511
v -0.50410676 -0.31155509 0.09386068
v -0.45519137 -0.36409509 0.14225179
v -0.36938521 -0.47030583 0.04865178
v -0.31543866 -0.51039046 0.00000000
v -0.34275100 -0.47558954 0.12781373
v -0.30967298 -0.47007102 0.20769180
v -0.42174423 -0.42676905 0.00000000
v -0.41626829 -0.42122787 0.09637322
v -0.38844714 -0.42138591 0.17760275
v -0.42426407 -0.36090058 0.22304882
v -0.35267115 -0.41291457 0.25519523
v -0.38794667 -0.33855253 0.30802527
v -0.30802527 -0.38794667 0.33855253
v -0.33855253 -0.30802527 0.38794667
v -0.54778951 -0.23976423 0.04939415
v -0.53460389 -0.23171243 0.14320616
v -0.57831675 -0.15984282 0.00000000
v -0.57063389 -0.15771933 0.09747591
v -0.54974651 -0.15844965 0.18075533
v -0.48541018 -0.30000001 0.18541020
v -0.50634688 -0.23016824 0.22502314
v -0.45476127 -0.28105792 0.27239430
v -0.51760107 -0.15593515 0.26033315
v -0.59261298 -0.07984266 0.04934548
v -0.57983553 -0.07967549 0.13207021
v -0.55458277 -0.07899322 0.21493727
v -0.51895761 -0.07872023 0.29066497
v -0.47007102 -0.20769180 0.30967298
v -0.47558954 -0.12781373 0.34275100
v -0.47030583 -0.04865178 0.36938521
v -0.41291457 -0.25519523 0.35267115
v -0.42138591 -0.17760275 0.38844714
v -0.36090058 -0.22304882 0.42426407
v -0.42122787 -0.09637322 0.41626829
v -0.36409509 -0.14225179 0.45519137
v -0.31155509 -0.09386068 0.50410676
v -0.37214375 -0.04868511 0.46812263
v -0.24201322 -0.54902607 0.00000000
v -0.29066497 -0.51895761 0.07872023
v -0.16395992 -0.57716304 0.00000000
v -0.21493727 -0.55458277 0.07899322
v -0.26033315 -0.51760107 0.15593515
v -0.27239430 -0.45476127 0.28105792
v -0.22502314 -0.50634688 0.23016824
v -0.18075533 -0.54974651 0.15844965
v -0.08277135 -0.59426332 0.00000000
v -0.13207021 -0.57983553 0.07967549
v -0.04934548 -0.59261298 0.07984266
v -0.09747591 -0.57063389 0.15771933
v -0.14320616 -0.53460389 0.23171243
v -0.04939415 -0.54778951 0.23976423
v -0.18541020 -0.48541018 0.30000001
v -0.25519523 -0.35267115 0.41291457
v -0.22304882 -0.42426407 0.36090058
v -0.17760275 -0.38844714 0.42138591
v -0.20769180 -0.30967298 0.47007102
v -0.14225179 -0.45519137 0.36409509
v -0.09386068 -0.50410676 0.31155509
v -0.04868511 -0.46812263 0.37214375
v -0.09637322 -0.41626829 0.42122787
v -0.12781373 -0.34275100 0.47558954
v -0.04865178 -0.36938521 0.47030583
v -0.28105792 -0.27239430 0.45476127
v -0.23016824 -0.22502314 0.50634688
v -0.30000001 -0.18541020 0.48541018
v -0.15593515 -0.26033315 0.51760107
v -0.15844965 -0.18075533 0.54974651
v -0.23171243 -0.14320616 0.53460389
v -0.23976423 -0.04939415 0.54778951
v -0.15771933 -0.09747591 0.57063389
v -0.07872023 -0.29066497 0.51895761
v -0.07899322 -0.21493727 0.55458277
v -0.07967549 -0.13207021 0.57983553
v -0.07984266 -0.04934548 0.59261298
v -0.51039046 0.00000000 -0.31543866
v -0.47030583 0.04865178 -0.36938521
v -0.47558954 0.12781373 -0.34275100
v -0.47007102 0.20769180 -0.30967298
v -0.37214375 0.04868511 -0.46812263
v -0.31543866 0.00000000 -0.51039046
v -0.36409509 0.14225179 -0.45519137
v -0.31155509 0.09386068 -0.50410676
v -0.42676905 0.00000000 -0.42174423
v -0.42122787 0.09637322 -0.41626829
v -0.42138591 0.17760275 -0.38844714
v -0.41291457 0.25519523 -0.35267115
v -0.36090058 0.22304882 -0.42426407
v -0.54902607 0.00000000 -0.24201322
v -0.57716304 0.00000000 -0.16395992
v -0.55458277 0.07899322 -0.21493727
v -0.51895761 0.07872023 -0.29066497
v -0.59426332 0.00000000 -0.08277135
v -0.57983553 0.07967549 -0.13207021
v -0.59261298 0.07984266 -0.04934548
v -0.54974651 0.15844965 -0.18075533
v -0.51760107 0.15593515 -0.26033315
v -0.50634688 0.23016824 -0.22502314
v -0.45476127 0.28105792 -0.27239430
v -0.57063389 0.15771933 -0.09747591
v -0.53460389 0.23171243 -0.14320616
v -0.54778951 0.23976423 -0.04939415
v -0.38794667 0.33855253 -0.30802527
v -0.33855253 0.30802527 -0.38794667
v -0.30802527 0.38794667 -0.33855253
v -0.48541018 0.30000001 -0.18541020
v -0.50410676 0.31155509 -0.09386068
v -0.45519137 0.36409509 -0.14225179
v -0.46812263 0.37214375 -0.04868511
v -0.42426407 0.36090058 -0.22304882
v -0.38844714 0.42138591 -0.17760275
v -0.35267115 0.41291457 -0.25519523
v -0.41626829 0.42122787 -0.09637322
v -0.30967298 0.47007102 -0.20769180
v -0.34275100 0.47558954 -0.12781373
v -0.36938521 0.47030583 -0.04865178
v -0.23976423 0.04939415 -0.54778951
v -0.23171243 0.14320616 -0.53460389
v -0.15984282 0.00000000 -0.57831675
v -0.15771933 0.09747591 -0.57063389
v -0.30000001 0.18541020 -0.48541018
v -0.28105792 0.27239430 -0.45476127
v -0.23016824 0.22502314 -0.50634688
v -0.15844965 0.18075533 -0.54974651
v -0.15593515 0.26033315 -0.51760107
v -0.07984266 0.04934548 -0.59261298
v -0.07967549 0.13207021 -0.57983553
v -0.07899322 0.21493727 -0.55458277
v -0.07872023 0.29066497 -0.51895761
v -0.20769180 0.30967298 -0.47007102
v -0.25519523 0.35267115 -0.41291457
v -0.17760275 0.38844714 -0.42138591
v -0.22304882 0.42426407 -0.36090058
v -0.12781373 0.34275100 -0.47558954
v -0.04865178 0.36938521 -0.47030583
v -0.09637322 0.41626829 -0.42122787
v -0.14225179 0.45519137 -0.36409509
v -0.09386068 0.50410676 -0.31155509
v -0.04868511 0.46812263 -0.37214375
v -0.27239430 0.45476127 -0.28105792
v -0.22502314 0.50634688 -0.23016824
v -0.26033315 0.51760107 -0.15593515
v -0.18541020 0.48541018 -0.30000001
v -0.18075533 0.54974651 -0.15844965
v -0.29066497 0.51895761 -0.07872023
v -0.21493727 0.55458277 -0.07899322
v -0.14320616 0.53460389 -0.23171243
v -0.09747591 0.57063389 -0.15771933
v -0.04939415 0.54778951 -0.23976423
v -0.13207021 0.57983553 -0.07967549
v -0.04934548 0.59261298 -0.07984266
v -0.60000002 0.00000000 0.00000000
v -0.59426332 0.00000000 0.08277135
v -0.59261298 0.07984266 0.04934548
v -0.57983553 0.07967549 0.13207021
v -0.57716304 0.00000000 0.16395992
v -0.54902607 0.00000000 0.24201322
v -0.55458277 0.07899322 0.21493727
v -0.51895761 0.07872023 0.29066497
v -0.57831675 0.15984282 0.00000000
v -0.57063389 0.15771933 0.09747591
v -0.54778951 0.23976423 0.04939415
v -0.53460389 0.23171243 0.14320616
v -0.54974651 0.15844965 0.18075533
v -0.51760107 0.15593515 0.26033315
v -0.50634688 0.23016824 0.22502314
v -0.45476127 0.28105792 0.27239430
v -0.51039046 0.00000000 0.31543866
v -0.47030583 0.04865178 0.36938521
v -0.47558954 0.12781373 0.34275100
v -0.47007102 0.20769180 0.30967298
v -0.42676905 0.00000000 0.42174423
v -0.42122787 0.09637322 0.41626829
v -0.37214375 0.04868511 0.46812263
v -0.31543866 0.00000000 0.51039046
v -0.36409509 0.14225179 0.45519137
v -0.31155509 0.09386068 0.50410676
v -0.42138591 0.17760275 0.38844714
v -0.41291457 0.25519523 0.35267115
v -0.36090058 0.22304882 0.42426407
v -0.51039046 0.31543866 0.00000000
v -0.46812263 0.37214375 0.04868511
v -0.50410676 0.31155509 0.09386068
v -0.45519137 0.36409509 0.14225179
v -0.48541018 0.30000001 0.18541020
v -0.42174423 0.42676905 0.00000000
v -0.41626829 0.42122787 0.09637322
v -0.42426407 0.36090058 0.22304882
v -0.38844714 0.42138591 0.17760275
v -0.35267115 0.41291457 0.25519523
v -0.36938521 0.47030583 0.04865178
v -0.31543866 0.51039046 0.00000000
v -0.34275100 0.47558954 0.12781373
v -0.30967298 0.47007102 0.20769180
v -0.38794667 0.33855253 0.30802527
v -0.33855253 0.30802527 0.38794667
v -0.30802527 0.38794667 0.33855253
v -0.23976423 0.04939415 0.54778951
v -0.23171243 0.14320616 0.53460389
v -0.15984282 0.00000000 0.57831675
v -0.15771933 0.09747591 0.57063389
v -0.30000001 0.18541020 0.48541018
v -0.28105792 0.27239430 0.45476127
v -0.23016824 0.22502314 0.50634688
v -0.15844965 0.18075533 0.54974651
v -0.15593515 0.26033315 0.51760107
v -0.07984266 0.04934548 0.59261298
v -0.07967549 0.13207021 0.57983553
v -0.07899322 0.21493727 0.55458277
v -0.07872023 0.29066497 0.51895761
v -0.29066497 0.51895761 0.07872023
v -0.24201322 0.54902607 0.00000000
v -0.16395992 0.57716304 0.00000000
v -0.21493727 0.55458277 0.07899322
v -0.26033315 0.51760107 0.15593515
v -0.27239430 0.45476127 0.28105792
v -0.22502314 0.50634688 0.23016824
v -0.18075533 0.54974651 0.15844965
v -0.08277135 0.59426332 0.00000000
v -0.13207021 0.57983553 0.07967549
v -0.04934548 0.59261298 0.07984266
v -0.09747591 0.57063389 0.15771933
v -0.14320616 0.53460389 0.23171243
v -0.04939415 0.54778951 0.23976423
v -0.25519523 0.35267115 0.41291457
v -0.22304882 0.42426407 0.36090058
v -0.17760275 0.38844714 0.42138591
v -0.20769180 0.30967298 0.47007102
v -0.18541020 0.48541018 0.30000001
v -0.09637322 0.41626829 0.42122787
v -0.12781373 0.34275100 0.47558954
v -0.04865178 0.36938521 0.47030583
v -0.14225179 0.45519137 0.36409509
v -0.09386068 0.50410676 0.31155509
v -0.04868511 0.46812263 0.37214375
v 0.00000000 -0.51039046 -0.31543866
v 0.04868511 -0.46812263 -0.37214375
v 0.09386068 -0.50410676 -0.31155509
v 0.14225179 -0.45519137 -0.36409509
v 0.00000000 -0.31543866 -0.51039046
v 0.04865178 -0.36938521 -0.47030583
v 0.12781373 -0.34275100 -0.47558954
v 0.00000000 -0.42174423 -0.42676905
v 0.09637322 -0.41626829 -0.42122787
v 0.20769180 -0.30967298 -0.47007102
v 0.17760275 -0.38844714 -0.42138591
v 0.22304882 -0.42426407 -0.36090058
v 0.25519523 -0.35267115 -0.41291457
v 0.04939415 -0.54778951 -0.23976423
v 0.00000000 -0.57831675 -0.15984282
v 0.14320616 -0.53460389 -0.23171243
v 0.09747591 -0.57063389 -0.15771933
v 0.04934548 -0.59261298 -0.07984266
v 0.13207021 -0.57983553 -0.07967549
v 0.18075533 -0.54974651 -0.15844965
v 0.18541020 -0.48541018 -0.30000001
v 0.22502314 -0.50634688 -0.23016824
v 0.27239430 -0.45476127 -0.28105792
v 0.26033315 -0.51760107 -0.15593515
v 0.21493727 -0.55458277 -0.07899322
v 0.29066497 -0.51895761 -0.07872023
v 0.00000000 -0.24201322 -0.54902607
v 0.00000000 -0.16395992 -0.57716304
v 0.07872023 -0.29066497 -0.51895761
v 0.07899322 -0.21493727 -0.55458277
v 0.00000000 -0.08277135 -0.59426332
v 0.07967549 -0.13207021 -0.57983553
v 0.07984266 -0.04934548 -0.59261298
v 0.15593515 -0.26033315 -0.51760107
v 0.15844965 -0.18075533 -0.54974651
v 0.23016824 -0.22502314 -0.50634688
v 0.28105792 -0.27239430 -0.45476127
v 0.15771933 -0.09747591 -0.57063389
v 0.23171243 -0.14320616 -0.53460389
v 0.23976423 -0.04939415 -0.54778951
v 0.30802527 -0.38794667 -0.33855253
v 0.33855253 -0.30802527 -0.38794667
v 0.38794667 -0.33855253 -0.30802527
v 0.30967298 -0.47007102 -0.20769180
v 0.34275100 -0.47558954 -0.12781373
v 0.36938521 -0.47030583 -0.04865178
v 0.35267115 -0.41291457 -0.25519523
v 0.38844714 -0.42138591 -0.17760275
v 0.42426407 -0.36090058 -0.22304882
v 0.41626829 -0.42122787 -0.09637322
v 0.45519137 -0.36409509 -0.14225179
v 0.50410676 -0.31155509 -0.09386068
v 0.46812263 -0.37214375 -0.04868511
v 0.30000001 -0.18541020 -0.48541018
v 0.36090058 -0.22304882 -0.42426407
v 0.41291457 -0.25519523 -0.35267115
v 0.42138591 -0.17760275 -0.38844714
v 0.31155509 -0.09386068 -0.50410676
v 0.36409509 -0.14225179 -0.45519137
v 0.37214375 -0.04868511 -0.46812263
v 0.42122787 -0.09637322 -0.41626829
v 0.47007102 -0.20769180 -0.30967298
v 0.47558954 -0.12781373 -0.34275100
v 0.47030583 -0.04865178 -0.36938521
v 0.45476127 -0.28105792 -0.27239430
v 0.50634688 -0.23016824 -0.22502314
v 0.48541018 -0.30000001 -0.18541020
v 0.51760107 -0.15593515 -0.26033315
v 0.54974651 -0.15844965 -0.18075533
v 0.53460389 -0.23171243 -0.14320616
v 0.54778951 -0.23976423 -0.04939415
v 0.57063389 -0.15771933 -0.09747591
v 0.51895761 -0.07872023 -0.29066497
v 0.55458277 -0.07899322 -0.21493727
v 0.57983553 -0.07967549 -0.13207021
v 0.59261298 -0.07984266 -0.04934548
v 0.00000000 -0.60000002 0.00000000
v 0.04934548 -0.59261298 0.07984266
v 0.08277135 -0.59426332 0.00000000
v 0.13207021 -0.57983553 0.07967549
v 0.00000000 -0.57831675 0.15984282
v 0.04939415 -0.54778951 0.23976423
v 0.09747591 -0.57063389 0.15771933
v 0.14320616 -0.53460389 0.23171243
v 0.16395992 -0.57716304 0.00000000
v 0.21493727 -0.55458277 0.07899322
v 0.24201322 -0.54902607 0.00000000
v 0.29066497 -0.51895761 0.07872023
v 0.18075533 -0.54974651 0.15844965
v 0.26033315 -0.51760107 0.15593515
v 0.22502314 -0.50634688 0.23016824
v 0.27239430 -0.45476127 0.28105792
v 0.00000000 -0.51039046 0.31543866
v 0.04868511 -0.46812263 0.37214375
v 0.09386068 -0.50410676 0.31155509
v 0.14225179 -0.45519137 0.36409509
v 0.00000000 -0.42174423 0.42676905
v 0.09637322 -0.41626829 0.42122787
v 0.00000000 -0.31543866 0.51039046
v 0.04865178 -0.36938521 0.47030583
v 0.12781373 -0.34275100 0.47558954
v 0.18541020 -0.48541018 0.30000001
v 0.22304882 -0.42426407 0.36090058
v 0.17760275 -0.38844714 0.42138591
v 0.25519523 -0.35267115 0.41291457
v 0.20769180 -0.30967298 0.47007102
v 0.00000000 -0.24201322 0.54902607
v 0.00000000 -0.16395992 0.57716304
v 0.07872023 -0.29066497 0.51895761
v 0.07899322 -0.21493727 0.55458277
v 0.00000000 -0.08277135 0.59426332
v 0.07967549 -0.13207021 0.57983553
v 0.07984266 -0.04934548 0.59261298
v 0.15593515 -0.26033315 0.51760107
v 0.15844965 -0.18075533 0.54974651
v 0.23016824 -0.22502314 0.50634688
v 0.28105792 -0.27239430 0.45476127
v 0.15771933 -0.09747591 0.57063389
v 0.23171243 -0.14320616 0.53460389
v 0.23976423 -0.04939415 0.54778951
v 0.31543866 -0.51039046 0.00000000
v 0.36938521 -0.47030583 0.04865178
v 0.34275100 -0.47558954 0.12781373
v 0.30967298 -0.47007102 0.20769180
v 0.42174423 -0.42676905 0.00000000
v 0.41626829 -0.42122787 0.09637322
v 0.35267115 -0.41291457 0.25519523
v 0.38844714 -0.42138591 0.17760275
v 0.42426407 -0.36090058 0.22304882
v 0.46812263 -0.37214375 0.04868511
v 0.51039046 -0.31543866 0.00000000
v 0.45519137 -0.36409509 0.14225179
v 0.50410676 -0.31155509 0.09386068
v 0.30802527 -0.38794667 0.33855253
v 0.33855253 -0.30802527 0.38794667
v 0.38794667 -0.33855253 0.30802527
v 0.54778951 -0.23976423 0.04939415
v 0.53460389 -0.23171243 0.14320616
v 0.57831675 -0.15984282 0.00000000
v 0.57063389 -0.15771933 0.09747591
v 0.48541018 -0.30000001 0.18541020
v 0.45476127 -0.28105792 0.27239430
v 0.50634688 -0.23016824 0.22502314
v 0.51760107 -0.15593515 0.26033315
v 0.54974651 -0.15844965 0.18075533
v 0.59261298 -0.07984266 0.04934548
v 0.57983553 -0.07967549 0.13207021
v 0.51895761 -0.07872023 0.29066497
v 0.55458277 -0.07899322 0.21493727
v 0.36090058 -0.22304882 0.42426407
v 0.41291457 -0.25519523 0.35267115
v 0.42138591 -0.17760275 0.38844714
v 0.30000001 -0.18541020 0.48541018
v 0.42122787 -0.09637322 0.41626829
v 0.31155509 -0.09386068 0.50410676
v 0.36409509 -0.14225179 0.45519137
v 0.37214375 -0.04868511 0.46812263
v 0.47007102 -0.20769180 0.30967298
v 0.47558954 -0.12781373 0.34275100
v 0.47030583 -0.04865178 0.36938521
v 0.00000000 0.00000000 -0.60000002
v 0.00000000 0.08277135 -0.59426332
v 0.07984266 0.04934548 -0.59261298
v 0.07967549 0.13207021 -0.57983553
v 0.00000000 0.16395992 -0.57716304
v 0.00000000 0.24201322 -0.54902607
v 0.07899322 0.21493727 -0.55458277
v 0.07872023 0.29066497 -0.51895761
v 0.15984282 0.00000000 -0.57831675
v 0.15771933 0.09747591 -0.57063389
v 0.23976423 0.04939415 -0.54778951
v 0.23171243 0.14320616 -0.53460389
v 0.15844965 0.18075533 -0.54974651
v 0.15593515 0.26033315 -0.51760107
v 0.23016824 0.22502314 -0.50634688
v 0.28105792 0.27239430 -0.45476127
v 0.00000000 0.31543866 -0.51039046
v 0.04865178 0.36938521 -0.47030583
v 0.12781373 0.34275100 -0.47558954
v 0.00000000 0.42174423 -0.42676905
v 0.09637322 0.41626829 -0.42122787
v 0.00000000 0.51039046 -0.31543866
v 0.04868511 0.46812263 -0.37214375
v 0.09386068 0.50410676 -0.31155509
v 0.14225179 0.45519137 -0.36409509
v 0.20769180 0.30967298 -0.47007102
v 0.17760275 0.38844714 -0.42138591
v 0.22304882 0.42426407 -0.36090058
v 0.25519523 0.35267115 -0.41291457
v 0.04939415 0.54778951 -0.23976423
v 0.00000000 0.57831675 -0.15984282
v 0.14320616 0.53460389 -0.23171243
v 0.09747591 0.57063389 -0.15771933
v 0.04934548 0.59261298 -0.07984266
v 0.13207021 0.57983553 -0.07967549
v 0.18541020 0.48541018 -0.30000001
v 0.18075533 0.54974651 -0.15844965
v 0.22502314 0.50634688 -0.23016824
v 0.27239430 0.45476127 -0.28105792
v 0.26033315 0.51760107 -0.15593515
v 0.21493727 0.55458277 -0.07899322
v 0.29066497 0.51895761 -0.07872023
v 0.31543866 0.00000000 -0.51039046
v 0.37214375 0.04868511 -0.46812263
v 0.31155509 0.09386068 -0.50410676
v 0.36409509 0.14225179 -0.45519137
v 0.42676905 0.00000000 -0.42174423
v 0.42122787 0.09637322 -0.41626829
v 0.30000001 0.18541020 -0.48541018
v 0.36090058 0.22304882 -0.42426407
v 0.42138591 0.17760275 -0.38844714
v 0.41291457 0.25519523 -0.35267115
v 0.47030583 0.04865178 -0.36938521
v 0.51039046 0.00000000 -0.31543866
v 0.47558954 0.12781373 -0.34275100
v 0.47007102 0.20769180 -0.30967298
v 0.51895761 0.07872023 -0.29066497
v 0.54902607 0.00000000 -0.24201322
v 0.57716304 0.00000000 -0.16395992
v 0.55458277 0.07899322 -0.21493727
v 0.59426332 0.00000000 -0.08277135
v 0.57983553 0.07967549 -0.13207021
v 0.59261298 0.07984266 -0.04934548
v 0.51760107 0.15593515 -0.26033315
v 0.45476127 0.28105792 -0.27239430
v 0.50634688 0.23016824 -0.22502314
v 0.54974651 0.15844965 -0.18075533
v 0.57063389 0.15771933 -0.09747591
v 0.53460389 0.23171243 -0.14320616
v 0.54778951 0.23976423 -0.04939415
v 0.33855253 0.30802527 -0.38794667
v 0.30802527 0.38794667 -0.33855253
v 0.38794667 0.33855253 -0.30802527
v 0.35267115 0.41291457 -0.25519523
v 0.42426407 0.36090058 -0.22304882
v 0.38844714 0.42138591 -0.17760275
v 0.41626829 0.42122787 -0.09637322
v 0.30967298 0.47007102 -0.20769180
v 0.34275100 0.47558954 -0.12781373
v 0.36938521 0.47030583 -0.04865178
v 0.48541018 0.30000001 -0.18541020
v 0.45519137 0.36409509 -0.14225179
v 0.50410676 0.31155509 -0.09386068
v 0.46812263 0.37214375 -0.04868511
v 0.00000000 0.00000000 0.60000002
v 0.00000000 0.08277135 0.59426332
v 0.07984266 0.04934548 0.59261298
v 0.07967549 0.13207021 0.57983553
v 0.00000000 0.16395992 0.57716304
v 0.00000000 0.24201322 0.54902607
v 0.07899322 0.21493727 0.55458277
v 0.07872023 0.29066497 0.51895761
v 0.15984282 0.00000000 0.57831675
v 0.15771933 0.09747591 0.57063389
v 0.23976423 0.04939415 0.54778951
v 0.23171243 0.14320616 0.53460389
v 0.15844965 0.18075533 0.54974651
v 0.15593515 0.26033315 0.51760107
v 0.23016824 0.22502314 0.50634688
v 0.28105792 0.27239430 0.45476127
v 0.00000000 0.60000002 0.00000000
v 0.04934548 0.59261298 0.07984266
v 0.08277135 0.59426332 0.00000000
v 0.13207021 0.57983553 0.07967549
v 0.00000000 0.57831675 0.15984282
v 0.04939415 0.54778951 0.23976423
v 0.09747591 0.57063389 0.15771933
v 0.14320616 0.53460389 0.23171243
v 0.16395992 0.57716304 0.00000000
v 0.21493727 0.55458277 0.07899322
v 0.29066497 0.51895761 0.07872023
v 0.24201322 0.54902607 0.00000000
v 0.18075533 0.54974651 0.15844965
v 0.26033315 0.51760107 0.15593515
v 0.22502314 0.50634688 0.23016824
v 0.27239430 0.45476127 0.28105792
v 0.00000000 0.42174423 0.42676905
v 0.09637322 0.41626829 0.42122787
v 0.00000000 0.31543866 0.51039046
v 0.04865178 0.36938521 0.47030583
v 0.12781373 0.34275100 0.47558954
v 0.00000000 0.51039046 0.31543866
v 0.04868511 0.46812263 0.37214375
v 0.09386068 0.50410676 0.31155509
v 0.14225179 0.45519137 0.36409509
v 0.22304882 0.42426407 0.36090058
v 0.17760275 0.38844714 0.42138591
v 0.25519523 0.35267115 0.41291457
v 0.20769180 0.30967298 0.47007102
v 0.18541020 0.48541018 0.30000001
v 0.60000002 0.00000000 0.00000000
v 0.59426332 0.00000000 0.08277135
v 0.59261298 0.07984266 0.04934548
v 0.57983553 0.07967549 0.13207021
v 0.51895761 0.07872023 0.29066497
v 0.57716304 0.00000000 0.16395992
v 0.54902607 0.00000000 0.24201322
v 0.55458277 0.07899322 0.21493727
v 0.57831675 0.15984282 0.00000000
v 0.57063389 0.15771933 0.09747591
v 0.54778951 0.23976423 0.04939415
v 0.53460389 0.23171243 0.14320616
v 0.51760107 0.15593515 0.26033315
v 0.45476127 0.28105792 0.27239430
v 0.50634688 0.23016824 0.22502314
v 0.54974651 0.15844965 0.18075533
v 0.42676905 0.00000000 0.42174423
v 0.42122787 0.09637322 0.41626829
v 0.31543866 0.00000000 0.51039046
v 0.37214375 0.04868511 0.46812263
v 0.31155509 0.09386068 0.50410676
v 0.36409509 0.14225179 0.45519137
v 0.36090058 0.22304882 0.42426407
v 0.42138591 0.17760275 0.38844714
v 0.41291457 0.25519523 0.35267115
v 0.30000001 0.18541020 0.48541018
v 0.47030583 0.04865178 0.36938521
v 0.51039046 0.00000000 0.31543866
v 0.47558954 0.12781373 0.34275100
v 0.47007102 0.20769180 0.30967298
v 0.42174423 0.42676905 0.00000000
v 0.41626829 0.42122787 0.09637322
v 0.35267115 0.41291457 0.25519523
v 0.42426407 0.36090058 0.22304882
v 0.38844714 0.42138591 0.17760275
v 0.31543866 0.51039046 0.00000000
v 0.36938521 0.47030583 0.04865178
v 0.34275100 0.47558954 0.12781373
v 0.30967298 0.47007102 0.20769180
v 0.46812263 0.37214375 0.04868511
v 0.51039046 0.31543866 0.00000000
v 0.45519137 0.36409509 0.14225179
v 0.50410676 0.31155509 0.09386068
v 0.48541018 0.30000001 0.18541020
v 0.33855253 0.30802527 0.38794667
v 0.30802527 0.38794667 0.33855253
v 0.38794667 0.33855253 0.30802527
f 1 17 3
f 1 2 12
f 2 3 37
f 1 3 2
f 11 27 26
f 5 27 11
f 4 5 6
f 4 27 5
f 4 6 70
f 7 8 10
f 7 48 8
f 8 9 13
f 8 51 9
f 9 51 75
f 5 11 10
f 10 11 12
f 1 11 26
f 1 12 11
f 2 46 12
f 7 12 46
f 7 10 12
f 5 10 13
f 5 13 6
f 8 13 10
f 6 13 78
f 9 78 13
f 14 28 15
f 14 15 18
f 15 16 23
f 15 33 16
f 16 33 146
f 19 60 58
f 19 20 60
f 1 26 17
f 14 17 26
f 17 18 19
f 18 20 19
f 14 18 17
f 3 17 19
f 3 19 58
f 20 22 21
f 20 21 60
f 21 22 151
f 15 23 18
f 18 23 20
f 20 23 22
f 16 154 23
f 22 23 154
f 24 25 29
f 25 26 27
f 14 26 25
f 25 27 29
f 14 25 28
f 24 28 25
f 4 30 29
f 29 30 31
f 24 29 31
f 30 88 31
f 4 29 27
f 4 70 30
f 28 32 33
f 24 32 28
f 24 34 32
f 32 159 33
f 33 159 146
f 32 34 160
f 32 160 159
f 15 28 33
f 24 31 34
f 31 35 34
f 31 88 35
f 34 35 163
f 34 163 160
f 35 222 163
f 39 50 46
f 39 40 50
f 36 43 38
f 36 61 43
f 2 39 46
f 2 37 39
f 3 58 37
f 36 37 58
f 37 38 39
f 38 40 39
f 36 38 37
f 40 41 50
f 40 42 41
f 41 42 306
f 43 44 45
f 43 66 44
f 44 66 310
f 38 45 40
f 38 43 45
f 40 45 42
f 42 45 313
f 44 313 45
f 7 46 47
f 46 50 47
f 7 47 48
f 47 53 49
f 47 50 53
f 47 49 48
f 48 52 51
f 51 109 75
f 51 52 109
f 8 48 51
f 48 49 52
f 49 56 52
f 52 111 109
f 52 56 111
f 41 55 53
f 49 53 54
f 53 55 54
f 41 53 50
f 54 55 320
f 41 306 55
f 49 54 56
f 54 57 56
f 56 117 111
f 56 57 117
f 54 320 57
f 57 382 117
f 58 60 59
f 36 58 59
f 59 60 63
f 36 59 61
f 59 63 62
f 59 62 61
f 21 64 63
f 21 63 60
f 21 151 64
f 63 64 65
f 62 63 65
f 64 189 65
f 61 67 66
f 43 61 66
f 61 62 67
f 62 68 67
f 66 67 332
f 66 332 310
f 67 68 333
f 67 333 332
f 62 65 68
f 65 69 68
f 65 189 69
f 68 69 336
f 68 336 333
f 69 466 336
f 6 78 71
f 70 71 72
f 6 71 70
f 71 73 72
f 72 73 91
f 73 81 91
f 81 93 91
f 9 74 78
f 74 76 79
f 9 75 74
f 74 75 110
f 74 110 76
f 76 77 80
f 76 113 77
f 71 78 79
f 74 79 78
f 71 79 73
f 73 79 80
f 76 80 79
f 73 80 81
f 80 82 81
f 81 83 93
f 81 82 83
f 77 82 80
f 77 114 82
f 82 114 84
f 83 85 102
f 82 84 83
f 83 84 85
f 84 124 85
f 30 70 86
f 72 87 86
f 86 89 88
f 30 86 88
f 86 87 89
f 87 90 89
f 70 72 86
f 72 91 87
f 87 92 90
f 87 91 92
f 91 93 92
f 92 93 99
f 90 92 94
f 92 99 94
f 88 89 95
f 35 88 95
f 89 90 96
f 89 96 95
f 35 95 222
f 95 223 222
f 95 96 223
f 96 226 223
f 90 94 97
f 90 97 96
f 94 98 97
f 96 97 226
f 97 227 226
f 97 98 227
f 98 238 227
f 94 100 98
f 94 99 100
f 99 103 100
f 98 100 101
f 100 105 101
f 98 101 238
f 83 102 93
f 93 102 99
f 99 102 103
f 102 104 103
f 103 104 106
f 85 104 102
f 85 134 104
f 104 134 136
f 104 136 106
f 100 103 105
f 103 106 105
f 105 106 108
f 101 105 242
f 105 108 242
f 106 107 108
f 106 136 107
f 107 245 108
f 75 109 110
f 109 112 110
f 110 112 113
f 76 110 113
f 109 111 112
f 111 118 112
f 112 116 113
f 112 118 116
f 77 113 115
f 77 115 114
f 114 115 123
f 115 116 121
f 113 116 115
f 115 121 123
f 111 117 118
f 117 119 118
f 116 118 120
f 118 119 120
f 117 382 119
f 119 386 120
f 116 120 121
f 120 122 121
f 121 122 129
f 121 129 123
f 120 386 122
f 122 398 129
f 114 123 125
f 123 128 125
f 84 114 125
f 84 125 124
f 85 124 134
f 124 127 134
f 124 125 126
f 125 128 126
f 124 126 127
f 126 132 127
f 127 132 137
f 123 129 128
f 128 129 130
f 129 398 130
f 126 128 131
f 126 131 132
f 128 130 131
f 130 402 131
f 131 402 133
f 131 133 132
f 132 133 142
f 133 404 142
f 134 135 136
f 127 135 134
f 135 139 136
f 127 137 135
f 135 137 138
f 135 138 139
f 107 136 139
f 107 139 140
f 107 140 245
f 139 141 140
f 138 141 139
f 140 141 270
f 132 142 137
f 137 142 143
f 137 143 138
f 138 143 144
f 142 412 143
f 142 404 412
f 143 413 144
f 143 412 413
f 138 144 141
f 141 144 145
f 141 145 270
f 144 416 145
f 144 413 416
f 145 416 550
f 16 147 154
f 146 162 147
f 16 146 147
f 147 148 155
f 147 162 148
f 148 167 149
f 148 149 156
f 22 154 150
f 22 150 151
f 150 153 151
f 150 152 153
f 152 191 153
f 147 155 154
f 150 154 155
f 148 156 155
f 150 155 152
f 152 155 156
f 152 158 191
f 158 192 191
f 152 156 158
f 156 157 158
f 149 157 156
f 149 169 157
f 157 169 173
f 157 174 158
f 158 174 192
f 146 159 162
f 159 161 162
f 160 164 161
f 159 160 161
f 161 167 162
f 161 164 166
f 161 166 167
f 148 162 167
f 160 163 164
f 163 165 164
f 163 222 165
f 164 165 170
f 164 170 166
f 165 230 170
f 166 171 168
f 149 167 168
f 166 168 167
f 149 168 169
f 168 176 169
f 168 171 176
f 166 170 171
f 170 172 171
f 170 230 172
f 171 172 177
f 171 177 176
f 172 251 177
f 157 173 174
f 174 175 201
f 173 175 174
f 173 182 175
f 169 176 180
f 176 178 180
f 176 177 178
f 177 179 178
f 177 251 179
f 169 180 173
f 173 180 182
f 178 181 180
f 180 181 182
f 175 182 210
f 182 184 210
f 181 184 182
f 178 183 181
f 178 179 183
f 181 183 185
f 179 256 183
f 183 256 186
f 181 185 184
f 184 185 212
f 183 186 185
f 185 186 215
f 186 262 215
f 64 151 187
f 151 153 187
f 153 188 187
f 153 191 188
f 64 187 189
f 187 190 189
f 187 188 190
f 188 194 190
f 188 191 193
f 191 192 193
f 192 200 193
f 188 193 194
f 193 195 194
f 193 200 195
f 189 190 196
f 69 189 196
f 190 194 197
f 190 197 196
f 69 196 466
f 196 467 466
f 196 197 467
f 197 470 467
f 194 195 198
f 194 198 197
f 195 199 198
f 195 204 199
f 197 198 470
f 198 471 470
f 198 199 471
f 199 482 471
f 195 200 204
f 200 202 204
f 174 201 192
f 192 201 200
f 175 210 203
f 175 203 201
f 200 201 202
f 201 203 202
f 202 203 207
f 203 210 213
f 203 213 207
f 199 204 205
f 204 206 205
f 199 205 482
f 202 206 204
f 202 207 206
f 206 207 209
f 205 206 485
f 206 209 485
f 207 213 208
f 207 208 209
f 208 487 209
f 184 211 210
f 210 211 213
f 184 212 211
f 211 217 213
f 211 212 214
f 211 214 217
f 185 215 212
f 212 215 216
f 215 262 282
f 215 282 216
f 212 216 214
f 214 216 220
f 216 282 283
f 216 283 220
f 208 213 217
f 208 217 219
f 214 218 217
f 217 218 219
f 208 219 487
f 218 496 219
f 214 220 218
f 218 220 221
f 220 283 289
f 220 289 221
f 218 221 496
f 221 289 566
f 222 223 224
f 165 222 224
f 223 226 225
f 223 225 224
f 165 224 230
f 224 231 230
f 224 225 231
f 225 234 231
f 225 226 228
f 226 227 228
f 227 238 229
f 227 229 228
f 225 228 234
f 228 235 234
f 228 229 235
f 229 240 235
f 230 231 232
f 172 230 232
f 231 234 233
f 231 233 232
f 172 232 251
f 232 233 253
f 232 253 251
f 233 255 253
f 233 234 236
f 234 235 236
f 235 241 236
f 233 236 255
f 236 241 237
f 236 237 255
f 229 238 239
f 101 239 238
f 101 242 239
f 229 239 240
f 239 243 240
f 235 240 241
f 240 248 241
f 239 242 243
f 242 244 243
f 240 243 248
f 243 244 246
f 243 246 248
f 108 244 242
f 108 245 244
f 244 245 247
f 244 247 246
f 246 247 272
f 241 248 249
f 246 250 248
f 248 250 249
f 237 241 249
f 237 249 265
f 249 250 266
f 250 273 266
f 246 272 250
f 250 272 273
f 251 253 252
f 179 251 252
f 253 255 254
f 252 253 254
f 179 252 256
f 254 255 258
f 237 258 255
f 252 257 256
f 256 257 261
f 252 254 257
f 254 259 257
f 257 259 263
f 237 265 258
f 258 265 260
f 254 258 259
f 258 260 259
f 259 260 264
f 260 286 264
f 260 267 286
f 186 256 261
f 257 263 261
f 186 261 262
f 261 281 262
f 261 263 281
f 259 264 263
f 263 264 285
f 249 266 265
f 265 266 267
f 266 295 267
f 260 265 267
f 245 268 247
f 140 268 245
f 247 269 272
f 247 268 269
f 140 270 268
f 268 270 271
f 268 271 269
f 269 271 275
f 269 274 272
f 272 274 273
f 273 274 298
f 274 275 276
f 269 275 274
f 274 276 298
f 270 277 271
f 145 277 270
f 271 278 275
f 271 277 278
f 145 550 277
f 277 550 551
f 277 551 278
f 278 551 554
f 275 279 276
f 275 278 279
f 276 280 301
f 276 279 280
f 278 554 279
f 279 554 555
f 279 555 280
f 280 555 584
f 263 285 281
f 262 281 282
f 281 284 282
f 281 285 284
f 282 284 283
f 283 284 290
f 284 285 288
f 284 288 290
f 264 287 285
f 264 286 287
f 286 299 287
f 285 287 288
f 287 299 293
f 287 293 288
f 283 290 289
f 289 290 291
f 288 292 290
f 290 292 291
f 289 291 566
f 291 292 570
f 293 299 304
f 288 293 292
f 292 293 294
f 293 304 294
f 294 304 587
f 292 294 570
f 266 273 295
f 273 298 295
f 267 296 286
f 267 295 296
f 295 298 297
f 295 297 296
f 296 297 303
f 276 301 298
f 297 298 301
f 286 296 299
f 296 303 299
f 297 301 300
f 297 300 303
f 300 305 303
f 300 302 582
f 300 582 305
f 280 302 301
f 300 301 302
f 280 584 302
f 299 303 304
f 303 305 304
f 304 305 587
f 42 313 307
f 42 307 306
f 306 307 308
f 307 309 308
f 308 309 326
f 44 311 313
f 44 310 311
f 310 334 311
f 311 312 314
f 311 334 312
f 307 313 314
f 311 314 313
f 307 314 309
f 309 314 316
f 312 316 314
f 309 317 326
f 317 328 326
f 312 315 316
f 312 339 315
f 309 316 317
f 316 318 317
f 315 318 316
f 317 318 346
f 317 346 328
f 315 342 318
f 318 342 347
f 55 306 319
f 55 319 320
f 319 322 320
f 306 308 319
f 308 321 319
f 319 321 322
f 321 325 322
f 308 326 321
f 57 320 323
f 320 322 323
f 57 323 382
f 323 384 382
f 322 324 323
f 322 325 324
f 323 324 384
f 324 390 384
f 321 327 325
f 321 326 327
f 325 327 329
f 326 328 327
f 327 328 349
f 327 349 329
f 324 325 330
f 325 329 330
f 324 330 390
f 330 392 390
f 329 331 330
f 330 331 392
f 331 426 392
f 329 350 331
f 310 332 334
f 332 335 334
f 332 333 335
f 333 337 335
f 334 335 339
f 312 334 339
f 335 337 340
f 335 340 339
f 333 336 337
f 336 338 337
f 336 466 338
f 337 338 343
f 337 343 340
f 338 474 343
f 315 339 341
f 340 344 341
f 339 340 341
f 315 341 342
f 341 359 342
f 341 344 359
f 340 343 344
f 343 345 344
f 343 474 345
f 344 345 363
f 344 363 359
f 345 508 363
f 346 348 352
f 318 347 346
f 346 347 348
f 347 361 348
f 329 349 350
f 349 353 350
f 331 350 351
f 331 351 426
f 350 355 351
f 328 346 352
f 328 352 349
f 349 352 353
f 352 354 353
f 353 354 356
f 348 354 352
f 348 370 354
f 350 353 355
f 353 356 355
f 355 356 358
f 351 355 430
f 355 358 430
f 354 370 372
f 354 372 356
f 356 357 358
f 356 372 357
f 357 436 358
f 342 359 360
f 359 364 360
f 342 360 347
f 347 360 361
f 348 361 370
f 361 367 370
f 360 362 361
f 360 364 362
f 361 362 367
f 359 363 364
f 363 365 364
f 363 508 365
f 362 364 366
f 364 365 366
f 362 366 368
f 365 512 366
f 366 512 369
f 362 368 367
f 367 368 373
f 366 369 368
f 368 369 378
f 369 519 378
f 370 371 372
f 367 371 370
f 371 375 372
f 367 373 371
f 371 373 374
f 371 374 375
f 357 372 375
f 357 376 436
f 357 375 376
f 375 377 376
f 374 377 375
f 376 377 444
f 368 378 373
f 373 378 379
f 373 379 374
f 374 379 380
f 378 523 379
f 378 519 523
f 379 523 524
f 379 524 380
f 374 380 377
f 377 380 381
f 377 381 444
f 380 526 381
f 380 524 526
f 381 526 596
f 119 382 383
f 382 384 383
f 119 383 386
f 383 388 386
f 383 384 385
f 384 390 385
f 383 385 388
f 385 394 388
f 122 386 387
f 386 388 387
f 122 387 398
f 387 400 398
f 387 388 389
f 388 394 389
f 387 389 400
f 389 407 400
f 385 390 391
f 390 392 391
f 385 391 394
f 391 395 394
f 391 392 393
f 392 426 393
f 391 393 395
f 393 428 395
f 389 394 396
f 394 395 396
f 389 396 407
f 395 429 396
f 396 397 407
f 396 429 397
f 130 398 399
f 398 400 399
f 130 399 402
f 399 400 401
f 400 407 401
f 399 403 402
f 402 403 405
f 399 401 403
f 401 409 403
f 403 409 406
f 133 402 405
f 133 405 404
f 404 405 414
f 403 406 405
f 405 406 414
f 401 407 408
f 397 408 407
f 401 408 409
f 408 410 409
f 409 410 411
f 408 439 410
f 397 439 408
f 410 422 411
f 410 440 422
f 406 409 411
f 406 411 419
f 404 414 412
f 412 414 415
f 412 415 413
f 413 415 417
f 406 419 414
f 414 419 415
f 415 420 417
f 415 419 420
f 413 417 416
f 416 417 418
f 416 418 550
f 417 423 418
f 417 420 423
f 418 423 558
f 411 421 419
f 419 421 420
f 420 421 424
f 411 422 421
f 421 422 458
f 421 458 424
f 420 424 423
f 423 424 425
f 423 425 558
f 424 458 460
f 424 460 425
f 425 460 614
f 393 426 427
f 351 427 426
f 393 427 428
f 351 430 427
f 427 431 428
f 395 428 429
f 428 433 429
f 427 430 431
f 430 435 431
f 428 431 433
f 431 435 437
f 431 437 433
f 429 433 432
f 397 429 432
f 397 432 439
f 432 433 434
f 433 437 434
f 432 434 441
f 434 447 441
f 358 435 430
f 358 436 435
f 435 436 438
f 435 438 437
f 437 438 446
f 434 437 446
f 434 446 447
f 432 441 439
f 439 441 440
f 410 439 440
f 440 441 456
f 436 442 438
f 438 443 446
f 376 442 436
f 438 442 443
f 376 444 442
f 442 444 445
f 442 445 443
f 443 445 450
f 443 448 446
f 446 448 447
f 447 448 463
f 448 450 449
f 448 449 463
f 443 450 448
f 444 451 445
f 381 451 444
f 445 452 450
f 445 451 452
f 381 596 451
f 451 596 597
f 451 597 452
f 452 597 601
f 449 453 464
f 449 450 454
f 450 452 454
f 449 454 453
f 454 601 602
f 452 601 454
f 453 454 602
f 453 602 623
f 422 440 455
f 440 456 455
f 441 447 456
f 447 463 456
f 456 463 457
f 455 456 457
f 455 457 461
f 422 455 458
f 455 461 458
f 457 459 461
f 459 462 461
f 457 464 459
f 459 612 462
f 459 465 612
f 458 461 460
f 460 461 462
f 460 462 614
f 457 463 464
f 449 464 463
f 453 465 464
f 459 464 465
f 453 623 465
f 466 467 468
f 338 466 468
f 467 470 469
f 467 469 468
f 338 468 474
f 468 475 474
f 468 469 475
f 469 478 475
f 470 471 472
f 469 470 472
f 471 482 473
f 471 473 472
f 469 472 478
f 472 479 478
f 472 473 479
f 473 484 479
f 474 475 476
f 345 474 476
f 475 478 477
f 475 477 476
f 345 476 508
f 476 510 508
f 476 477 510
f 477 514 510
f 477 478 480
f 478 479 480
f 479 491 480
f 477 480 514
f 480 491 481
f 480 481 514
f 205 483 482
f 473 482 483
f 205 485 483
f 473 483 484
f 483 486 484
f 483 485 486
f 485 488 486
f 486 488 490
f 484 486 492
f 486 490 492
f 209 488 485
f 209 487 488
f 487 489 488
f 488 489 490
f 489 501 490
f 479 484 491
f 484 492 491
f 491 492 494
f 490 493 492
f 492 493 494
f 481 491 494
f 481 494 536
f 493 537 494
f 493 504 537
f 490 501 493
f 493 501 504
f 487 495 489
f 219 495 487
f 219 496 495
f 495 496 498
f 489 497 501
f 489 495 497
f 495 498 497
f 497 498 502
f 221 499 496
f 496 499 498
f 221 566 499
f 499 566 568
f 498 499 500
f 498 500 502
f 499 568 500
f 500 568 574
f 497 503 501
f 502 505 503
f 497 502 503
f 501 503 504
f 503 543 504
f 503 505 543
f 500 506 502
f 502 506 505
f 500 574 506
f 506 574 577
f 505 507 544
f 505 506 507
f 506 577 507
f 507 577 631
f 508 510 509
f 365 508 509
f 510 514 511
f 509 510 511
f 365 509 512
f 509 513 512
f 512 513 518
f 509 511 513
f 511 516 513
f 513 516 520
f 511 514 515
f 481 515 514
f 481 536 515
f 515 536 517
f 511 515 516
f 515 517 516
f 516 517 521
f 517 530 521
f 517 538 530
f 369 512 518
f 369 518 519
f 518 522 519
f 513 520 518
f 518 520 522
f 516 521 520
f 520 521 529
f 520 529 522
f 519 522 523
f 522 525 523
f 523 525 524
f 524 525 527
f 522 529 525
f 525 532 527
f 525 529 532
f 524 527 526
f 526 527 528
f 526 528 596
f 527 533 528
f 527 532 533
f 528 533 604
f 521 531 529
f 529 531 532
f 521 530 531
f 530 546 531
f 531 546 534
f 531 534 532
f 534 546 548
f 535 548 636
f 532 534 533
f 533 534 535
f 533 535 604
f 534 548 535
f 494 537 536
f 536 537 538
f 537 539 538
f 517 536 538
f 504 539 537
f 504 543 539
f 539 543 541
f 538 539 540
f 530 538 540
f 539 541 540
f 540 541 547
f 541 544 542
f 541 542 547
f 542 549 547
f 542 545 626
f 542 626 549
f 505 544 543
f 541 543 544
f 507 545 544
f 507 631 545
f 542 544 545
f 530 540 546
f 540 547 546
f 546 547 548
f 547 549 548
f 548 549 636
f 550 552 551
f 418 552 550
f 551 553 554
f 551 552 553
f 418 558 552
f 552 558 559
f 552 559 553
f 553 559 562
f 554 556 555
f 553 556 554
f 555 557 584
f 555 556 557
f 553 562 556
f 556 562 563
f 557 563 586
f 556 563 557
f 558 560 559
f 425 560 558
f 559 561 562
f 559 560 561
f 560 614 616
f 425 614 560
f 561 616 621
f 560 616 561
f 562 564 563
f 561 564 562
f 563 564 594
f 561 621 564
f 564 565 594
f 564 621 565
f 291 567 566
f 566 567 568
f 291 570 567
f 567 570 572
f 567 569 568
f 568 569 574
f 567 572 569
f 569 572 578
f 571 587 589
f 294 571 570
f 570 571 572
f 294 587 571
f 573 589 595
f 571 573 572
f 572 573 578
f 571 589 573
f 569 575 574
f 574 575 577
f 569 578 575
f 575 578 579
f 576 579 633
f 575 576 577
f 576 631 577
f 575 579 576
f 578 580 579
f 573 595 580
f 573 580 578
f 579 580 634
f 580 595 581
f 580 581 634
f 582 585 583
f 582 583 588
f 583 590 588
f 583 586 592
f 583 592 590
f 302 584 585
f 557 585 584
f 302 585 582
f 557 586 585
f 583 585 586
f 305 588 587
f 587 588 589
f 305 582 588
f 588 590 589
f 589 590 595
f 592 594 593
f 590 592 591
f 591 592 593
f 565 593 594
f 565 640 593
f 591 593 641
f 581 591 641
f 563 594 586
f 586 594 592
f 590 591 595
f 581 595 591
f 596 598 597
f 528 598 596
f 597 599 601
f 597 598 599
f 528 604 598
f 598 604 605
f 598 605 599
f 599 605 611
f 600 608 624
f 601 603 602
f 599 603 601
f 600 623 602
f 600 602 603
f 599 611 603
f 603 611 608
f 600 603 608
f 606 636 638
f 607 638 639
f 535 606 604
f 604 606 605
f 605 607 611
f 605 606 607
f 535 636 606
f 606 638 607
f 608 611 610
f 608 610 625
f 607 639 610
f 609 625 610
f 609 610 639
f 607 610 611
f 612 613 615
f 612 622 613
f 613 617 615
f 613 619 617
f 613 624 619
f 614 615 616
f 462 615 614
f 616 617 621
f 615 617 616
f 462 612 615
f 565 618 640
f 618 620 640
f 619 625 620
f 617 619 618
f 618 619 620
f 609 620 625
f 609 642 620
f 617 618 621
f 565 621 618
f 465 623 622
f 600 622 623
f 465 622 612
f 600 624 622
f 613 622 624
f 619 624 625
f 608 625 624
f 626 632 627
f 626 627 635
f 627 633 630
f 627 637 635
f 627 630 637
f 628 630 634
f 581 628 634
f 581 641 628
f 628 642 629
f 609 629 642
f 628 629 630
f 629 637 630
f 576 632 631
f 545 631 632
f 576 633 632
f 545 632 626
f 627 632 633
f 579 634 633
f 630 633 634
f 549 635 636
f 635 638 636
f 637 639 638
f 635 637 638
f 549 626 635
f 629 639 637
f 609 639 629
f 640 642 641
f 593 640 641
f 628 641 642
f 620 642 640

