# https://github.com/mikedh/trimesh
v -0.41573480 -0.27778512 -0.50000000
v -0.27778512 -0.41573480 -0.50000000
v -0.35355338 -0.35355338 -0.50000000
v -0.38605246 -0.31395313 -0.04429527
v -0.42411074 -0.26211485 -0.01814347
v -0.41961381 -0.27052802 -0.00657875
v -0.39246908 -0.30613446 -0.04354242
v -0.38950399 -0.30974746 -0.04489926
v -0.39010218 -0.31011978 -0.04057093
v -0.39905071 -0.29811475 -0.03026379
v -0.30647674 -0.39218819 -0.04453857
v -0.30782101 -0.39192152 -0.04054315
v -0.30369291 -0.39447284 -0.04211994
v -0.31152025 -0.38804910 -0.04430855
v -0.29704577 -0.39992800 -0.03082548
v -0.27061453 -0.41956756 -0.00698843
v -0.25430194 -0.42828682 -0.02721155
v -0.35247314 -0.35443991 -0.00107036
v -0.35125479 -0.35543978 -0.00349718
v -0.36303562 -0.34199923 -0.01215818
v -0.46193975 -0.19134171 -0.50000000
v -0.49039263 -0.09754516 -0.50000000
v -0.44514099 -0.22276998 -0.02617115
v -0.47049150 -0.16315040 -0.01850892
v -0.47975826 -0.13260192 -0.02756186
v -0.48530632 -0.11431248 -0.01165159
v -0.49295887 -0.07148962 -0.03806548
v -0.49344733 -0.06653036 -0.04369061
v -0.49323380 -0.06869826 -0.04245786
v -0.49384418 -0.06653555 -0.04112123
v -0.49394971 -0.06142940 -0.04325891
v -0.19134171 -0.46193975 -0.50000000
v -0.09754516 -0.49039263 -0.50000000
v -0.00000000 -0.50000000 -0.50000000
v -0.21492721 -0.44933304 -0.02143819
v -0.19831693 -0.45821142 -0.00980490
v -0.15406741 -0.47324678 -0.02701551
v -0.12554739 -0.48189825 -0.02769774
v -0.07934346 -0.49218532 -0.01675541
v -0.05536221 -0.49454728 -0.03251886
v -0.38605246 -0.31395313 0.04429527
v -0.42532539 -0.26286554 0.00000000
v -0.42411074 -0.26211485 0.01814347
v -0.41961381 -0.27052802 0.00657875
v -0.39905071 -0.29811475 0.03026379
v -0.39246908 -0.30613446 0.04354242
v -0.39010218 -0.31011978 0.04057093
v -0.38950399 -0.30974746 0.04489926
v -0.29704577 -0.39992800 0.03082548
v -0.30782101 -0.39192152 0.04054315
v -0.30647674 -0.39218819 0.04453857
v -0.30369291 -0.39447284 0.04211994
v -0.31152025 -0.38804910 0.04430855
v -0.27061453 -0.41956756 0.00698843
v -0.26286554 -0.42532539 0.00000000
v -0.25430194 -0.42828682 0.02721155
v -0.35247314 -0.35443991 0.00107036
v -0.35145351 -0.35564086 0.00000000
v -0.35125479 -0.35543978 0.00349718
v -0.36303562 -0.34199923 0.01215818
v -0.41573480 -0.27778512 0.50000000
v -0.27778512 -0.41573480 0.50000000
v -0.35355338 -0.35355338 0.50000000
v -0.44514099 -0.22276998 0.02617115
v -0.47049150 -0.16315040 0.01850892
v -0.48193064 -0.13320234 0.00000000
v -0.47975826 -0.13260192 0.02756186
v -0.48530632 -0.11431248 0.01165159
v -0.49295887 -0.07148962 0.03806548
v -0.49323380 -0.06869826 0.04245786
v -0.49384418 -0.06653555 0.04112123
v -0.49344733 -0.06653036 0.04369061
v -0.49394971 -0.06142940 0.04325891
v -0.46193975 -0.19134171 0.50000000
v -0.49039263 -0.09754516 0.50000000
v -0.21492721 -0.44933304 0.02143819
v -0.20167768 -0.45752171 0.00000000
v -0.19531864 -0.45981404 0.00000000
v -0.19831693 -0.45821142 0.00980490
v -0.17922895 -0.46561411 0.00000000
v -0.15406741 -0.47324678 0.02701551
v -0.13663326 -0.48096919 0.00000000
v -0.12554739 -0.48189825 0.02769774
v -0.11038485 -0.48649776 0.00000000
v -0.08692807 -0.49143833 0.00000000
v -0.07934346 -0.49218532 0.01675541
v -0.06897612 -0.49521944 0.00000000
v -0.05536221 -0.49454728 0.03251886
v -0.19134171 -0.46193975 0.50000000
v -0.09754516 -0.49039263 0.50000000
v -0.00000000 -0.50000000 0.50000000
v -0.50000000 0.00000000 -0.50000000
v -0.49039263 0.09754516 -0.50000000
v -0.46193975 0.19134171 -0.50000000
v -0.49394971 0.06142940 -0.04325891
v -0.49344733 0.06653036 -0.04369061
v -0.49384418 0.06653555 -0.04112123
v -0.49323380 0.06869826 -0.04245786
v -0.49295887 0.07148962 -0.03806548
v -0.48530632 0.11431248 -0.01165159
v -0.47975826 0.13260192 -0.02756186
v -0.47049150 0.16315040 -0.01850892
v -0.44514099 0.22276998 -0.02617115
v -0.41573480 0.27778512 -0.50000000
v -0.35355338 0.35355338 -0.50000000
v -0.27778512 0.41573480 -0.50000000
v -0.42411074 0.26211485 -0.01814347
v -0.41961381 0.27052802 -0.00657875
v -0.39246908 0.30613446 -0.04354242
v -0.38950399 0.30974746 -0.04489926
v -0.39010218 0.31011978 -0.04057093
v -0.39905071 0.29811475 -0.03026379
v -0.38605246 0.31395313 -0.04429527
v -0.36303562 0.34199923 -0.01215818
v -0.35247314 0.35443991 -0.00107036
v -0.35125479 0.35543978 -0.00349718
v -0.31152025 0.38804910 -0.04430855
v -0.30647674 0.39218819 -0.04453857
v -0.30782101 0.39192152 -0.04054315
v -0.30369291 0.39447284 -0.04211994
v -0.29704577 0.39992800 -0.03082548
v -0.27061453 0.41956756 -0.00698843
v -0.25430194 0.42828682 -0.02721155
v -0.19134171 0.46193975 -0.50000000
v -0.09754516 0.49039263 -0.50000000
v -0.21492721 0.44933304 -0.02143819
v -0.19831693 0.45821142 -0.00980490
v -0.15406741 0.47324678 -0.02701551
v -0.12554739 0.48189825 -0.02769774
v -0.07934346 0.49218532 -0.01675541
v -0.05536221 0.49454728 -0.03251886
v -0.50000000 0.00000000 0.00000000
v -0.49394971 0.06142940 0.04325891
v -0.49384418 0.06653555 0.04112123
v -0.49323380 0.06869826 0.04245786
v -0.49344733 0.06653036 0.04369061
v -0.49295887 0.07148962 0.03806548
v -0.48530632 0.11431248 0.01165159
v -0.48193064 0.13320234 0.00000000
v -0.47975826 0.13260192 0.02756186
v -0.47049150 0.16315040 0.01850892
v -0.44514099 0.22276998 0.02617115
v -0.50000000 0.00000000 0.50000000
v -0.49039263 0.09754516 0.50000000
v -0.46193975 0.19134171 0.50000000
v -0.42532539 0.26286554 0.00000000
v -0.42411074 0.26211485 0.01814347
v -0.41961381 0.27052802 0.00657875
v -0.39905071 0.29811475 0.03026379
v -0.39246908 0.30613446 0.04354242
v -0.39010218 0.31011978 0.04057093
v -0.38950399 0.30974746 0.04489926
v -0.38605246 0.31395313 0.04429527
v -0.36303562 0.34199923 0.01215818
v -0.35247314 0.35443991 0.00107036
v -0.35125479 0.35543978 0.00349718
v -0.35145351 0.35564086 0.00000000
v -0.29704577 0.39992800 0.03082548
v -0.31152025 0.38804910 0.04430855
v -0.30782101 0.39192152 0.04054315
v -0.30647674 0.39218819 0.04453857
v -0.30369291 0.39447284 0.04211994
v -0.27061453 0.41956756 0.00698843
v -0.26286554 0.42532539 0.00000000
v -0.25430194 0.42828682 0.02721155
v -0.41573480 0.27778512 0.50000000
v -0.35355338 0.35355338 0.50000000
v -0.27778512 0.41573480 0.50000000
v -0.21492721 0.44933304 0.02143819
v -0.20167768 0.45752171 0.00000000
v -0.19531864 0.45981404 0.00000000
v -0.19831693 0.45821142 0.00980490
v -0.17922895 0.46561411 0.00000000
v -0.15406741 0.47324678 0.02701551
v -0.13663326 0.48096919 0.00000000
v -0.12554739 0.48189825 0.02769774
v -0.11038485 0.48649776 0.00000000
v -0.08692807 0.49143833 0.00000000
v -0.07934346 0.49218532 0.01675541
v -0.06897612 0.49521944 0.00000000
v -0.05536221 0.49454728 0.03251886
v -0.19134171 0.46193975 0.50000000
v -0.09754516 0.49039263 0.50000000
v 0.09754516 -0.49039263 -0.50000000
v 0.19134171 -0.46193975 -0.50000000
v 0.05536221 -0.49454728 -0.03251886
v 0.07934346 -0.49218532 -0.01675541
v 0.12554739 -0.48189825 -0.02769774
v 0.15406741 -0.47324678 -0.02701551
v 0.19831693 -0.45821142 -0.00980490
v 0.21492721 -0.44933304 -0.02143819
v 0.27778512 -0.41573480 -0.50000000
v 0.35355338 -0.35355338 -0.50000000
v 0.41573480 -0.27778512 -0.50000000
v 0.25430194 -0.42828682 -0.02721155
v 0.27061453 -0.41956756 -0.00698843
v 0.30369291 -0.39447284 -0.04211994
v 0.30647674 -0.39218819 -0.04453857
v 0.30782101 -0.39192152 -0.04054315
v 0.31152025 -0.38804910 -0.04430855
v 0.29704577 -0.39992800 -0.03082548
v 0.35125479 -0.35543978 -0.00349718
v 0.35247314 -0.35443991 -0.00107036
v 0.36303562 -0.34199923 -0.01215818
v 0.38605246 -0.31395313 -0.04429527
v 0.38950399 -0.30974746 -0.04489926
v 0.39010218 -0.31011978 -0.04057093
v 0.39246908 -0.30613446 -0.04354242
v 0.39905071 -0.29811475 -0.03026379
v 0.41961381 -0.27052802 -0.00657875
v 0.42411074 -0.26211485 -0.01814347
v 0.46193975 -0.19134171 -0.50000000
v 0.49039263 -0.09754516 -0.50000000
v 0.44514099 -0.22276998 -0.02617115
v 0.47049150 -0.16315040 -0.01850892
v 0.47975826 -0.13260192 -0.02756186
v 0.48530632 -0.11431248 -0.01165159
v 0.49295887 -0.07148962 -0.03806548
v 0.49344733 -0.06653036 -0.04369061
v 0.49323380 -0.06869826 -0.04245786
v 0.49384418 -0.06653555 -0.04112123
v 0.49394971 -0.06142940 -0.04325891
v 0.00000000 -0.50000000 0.00000000
v 0.05536221 -0.49454728 0.03251886
v 0.06897612 -0.49521944 0.00000000
v 0.08692807 -0.49143833 0.00000000
v 0.07934346 -0.49218532 0.01675541
v 0.11038485 -0.48649776 0.00000000
v 0.13663326 -0.48096919 0.00000000
v 0.12554739 -0.48189825 0.02769774
v 0.15406741 -0.47324678 0.02701551
v 0.17922895 -0.46561411 0.00000000
v 0.19531864 -0.45981404 0.00000000
v 0.20167768 -0.45752171 0.00000000
v 0.19831693 -0.45821142 0.00980490
v 0.21492721 -0.44933304 0.02143819
v 0.09754516 -0.49039263 0.50000000
v 0.19134171 -0.46193975 0.50000000
v 0.26286554 -0.42532539 0.00000000
v 0.25430194 -0.42828682 0.02721155
v 0.27061453 -0.41956756 0.00698843
v 0.29704577 -0.39992800 0.03082548
v 0.30369291 -0.39447284 0.04211994
v 0.30782101 -0.39192152 0.04054315
v 0.30647674 -0.39218819 0.04453857
v 0.31152025 -0.38804910 0.04430855
v 0.35145351 -0.35564086 0.00000000
v 0.35125479 -0.35543978 0.00349718
v 0.35247314 -0.35443991 0.00107036
v 0.36303562 -0.34199923 0.01215818
v 0.38605246 -0.31395313 0.04429527
v 0.39905071 -0.29811475 0.03026379
v 0.39010218 -0.31011978 0.04057093
v 0.38950399 -0.30974746 0.04489926
v 0.39246908 -0.30613446 0.04354242
v 0.41961381 -0.27052802 0.00657875
v 0.42532539 -0.26286554 0.00000000
v 0.42411074 -0.26211485 0.01814347
v 0.27778512 -0.41573480 0.50000000
v 0.35355338 -0.35355338 0.50000000
v 0.41573480 -0.27778512 0.50000000
v 0.44514099 -0.22276998 0.02617115
v 0.47049150 -0.16315040 0.01850892
v 0.48193064 -0.13320234 0.00000000
v 0.47975826 -0.13260192 0.02756186
v 0.48530632 -0.11431248 0.01165159
v 0.49295887 -0.07148962 0.03806548
v 0.49323380 -0.06869826 0.04245786
v 0.49384418 -0.06653555 0.04112123
v 0.49344733 -0.06653036 0.04369061
v 0.49394971 -0.06142940 0.04325891
v 0.46193975 -0.19134171 0.50000000
v 0.49039263 -0.09754516 0.50000000
v 0.00000000 0.50000000 -0.50000000
v 0.09754516 0.49039263 -0.50000000
v 0.19134171 0.46193975 -0.50000000
v 0.05536221 0.49454728 -0.03251886
v 0.07934346 0.49218532 -0.01675541
v 0.12554739 0.48189825 -0.02769774
v 0.15406741 0.47324678 -0.02701551
v 0.19831693 0.45821142 -0.00980490
v 0.21492721 0.44933304 -0.02143819
v 0.50000000 0.00000000 -0.50000000
v 0.49039263 0.09754516 -0.50000000
v 0.46193975 0.19134171 -0.50000000
v 0.49394971 0.06142940 -0.04325891
v 0.49344733 0.06653036 -0.04369061
v 0.49384418 0.06653555 -0.04112123
v 0.49323380 0.06869826 -0.04245786
v 0.49295887 0.07148962 -0.03806548
v 0.48530632 0.11431248 -0.01165159
v 0.47975826 0.13260192 -0.02756186
v 0.47049150 0.16315040 -0.01850892
v 0.44514099 0.22276998 -0.02617115
v 0.35355338 0.35355338 -0.50000000
v 0.27778512 0.41573480 -0.50000000
v 0.41573480 0.27778512 -0.50000000
v 0.36303562 0.34199923 -0.01215818
v 0.35125479 0.35543978 -0.00349718
v 0.35247314 0.35443991 -0.00107036
v 0.25430194 0.42828682 -0.02721155
v 0.27061453 0.41956756 -0.00698843
v 0.31152025 0.38804910 -0.04430855
v 0.30369291 0.39447284 -0.04211994
v 0.30647674 0.39218819 -0.04453857
v 0.30782101 0.39192152 -0.04054315
v 0.29704577 0.39992800 -0.03082548
v 0.38950399 0.30974746 -0.04489926
v 0.39010218 0.31011978 -0.04057093
v 0.39246908 0.30613446 -0.04354242
v 0.39905071 0.29811475 -0.03026379
v 0.41961381 0.27052802 -0.00657875
v 0.42411074 0.26211485 -0.01814347
v 0.38605246 0.31395313 -0.04429527
v 0.00000000 0.50000000 0.00000000
v 0.05536221 0.49454728 0.03251886
v 0.06897612 0.49521944 0.00000000
v 0.08692807 0.49143833 0.00000000
v 0.07934346 0.49218532 0.01675541
v 0.11038485 0.48649776 0.00000000
v 0.13663326 0.48096919 0.00000000
v 0.12554739 0.48189825 0.02769774
v 0.15406741 0.47324678 0.02701551
v 0.17922895 0.46561411 0.00000000
v 0.19531864 0.45981404 0.00000000
v 0.20167768 0.45752171 0.00000000
v 0.19831693 0.45821142 0.00980490
v 0.21492721 0.44933304 0.02143819
v 0.00000000 0.50000000 0.50000000
v 0.09754516 0.49039263 0.50000000
v 0.19134171 0.46193975 0.50000000
v 0.50000000 0.00000000 0.00000000
v 0.49394971 0.06142940 0.04325891
v 0.49384418 0.06653555 0.04112123
v 0.49323380 0.06869826 0.04245786
v 0.49344733 0.06653036 0.04369061
v 0.49295887 0.07148962 0.03806548
v 0.48530632 0.11431248 0.01165159
v 0.48193064 0.13320234 0.00000000
v 0.47975826 0.13260192 0.02756186
v 0.47049150 0.16315040 0.01850892
v 0.44514099 0.22276998 0.02617115
v 0.50000000 0.00000000 0.50000000
v 0.49039263 0.09754516 0.50000000
v 0.46193975 0.19134171 0.50000000
v 0.36303562 0.34199923 0.01215818
v 0.35125479 0.35543978 0.00349718
v 0.35145351 0.35564086 0.00000000
v 0.35247314 0.35443991 0.00107036
v 0.26286554 0.42532539 0.00000000
v 0.25430194 0.42828682 0.02721155
v 0.27061453 0.41956756 0.00698843
v 0.29704577 0.39992800 0.03082548
v 0.31152025 0.38804910 0.04430855
v 0.30369291 0.39447284 0.04211994
v 0.30782101 0.39192152 0.04054315
v 0.30647674 0.39218819 0.04453857
v 0.39905071 0.29811475 0.03026379
v 0.39010218 0.31011978 0.04057093
v 0.38950399 0.30974746 0.04489926
v 0.39246908 0.30613446 0.04354242
v 0.41961381 0.27052802 0.00657875
v 0.42532539 0.26286554 0.00000000
v 0.42411074 0.26211485 0.01814347
v 0.38605246 0.31395313 0.04429527
v 0.35355338 0.35355338 0.50000000
v 0.27778512 0.41573480 0.50000000
v 0.41573480 0.27778512 0.50000000
f 9 4 20
f 42 5 6
f 9 7 8
f 9 10 7
f 9 8 4
f 9 47 10
f 12 19 14
f 12 14 11
f 12 11 13
f 12 13 15
f 12 15 50
f 55 16 17
f 58 18 19
f 9 20 60
f 12 58 19
f 66 25 24
f 66 26 25
f 42 23 5
f 30 29 27
f 30 28 29
f 30 31 28
f 30 27 71
f 30 132 31
f 55 35 77
f 77 35 36
f 77 36 78
f 55 17 35
f 82 80 37
f 82 37 38
f 82 38 84
f 87 85 39
f 87 39 40
f 87 40 223
f 9 60 47
f 47 60 41
f 42 44 43
f 42 6 44
f 47 45 10
f 47 46 45
f 47 48 46
f 47 41 48
f 12 50 58
f 50 53 59
f 50 15 49
f 50 51 53
f 50 52 51
f 50 49 52
f 55 54 16
f 55 56 54
f 58 57 18
f 58 59 57
f 50 59 58
f 42 64 23
f 66 65 67
f 66 24 65
f 66 67 68
f 42 43 64
f 66 68 26
f 71 27 69
f 71 69 70
f 71 70 72
f 71 72 73
f 30 71 132
f 71 73 132
f 55 77 76
f 77 79 76
f 77 78 79
f 55 76 56
f 82 81 80
f 82 83 81
f 82 84 83
f 87 86 85
f 87 88 86
f 87 223 88
f 97 95 132
f 97 96 95
f 97 98 96
f 97 99 98
f 97 134 99
f 139 101 100
f 139 102 101
f 146 107 103
f 146 108 107
f 111 110 109
f 111 109 112
f 111 113 110
f 111 112 151
f 111 114 113
f 111 151 114
f 157 116 115
f 119 116 157
f 119 117 116
f 119 118 117
f 119 120 118
f 119 121 120
f 119 160 121
f 164 123 122
f 164 126 123
f 164 170 126
f 170 127 126
f 170 171 127
f 175 128 173
f 175 129 128
f 175 177 129
f 180 130 178
f 180 131 130
f 180 315 131
f 97 132 134
f 134 132 133
f 134 137 99
f 134 133 136
f 134 136 135
f 134 135 137
f 139 100 138
f 139 138 140
f 139 140 141
f 139 141 102
f 146 103 142
f 146 142 147
f 146 147 148
f 146 148 108
f 151 112 149
f 151 149 150
f 151 150 152
f 151 152 153
f 151 153 154
f 151 154 114
f 157 115 155
f 157 155 156
f 157 156 160
f 119 157 160
f 160 156 159
f 160 158 121
f 160 159 161
f 160 161 162
f 160 162 158
f 164 122 163
f 164 163 165
f 164 165 169
f 164 169 170
f 170 169 172
f 170 172 171
f 175 173 174
f 175 174 176
f 175 176 177
f 180 178 179
f 180 179 181
f 180 181 315
f 225 223 186
f 225 186 187
f 225 187 226
f 229 228 188
f 229 188 189
f 229 189 232
f 234 233 190
f 234 190 191
f 234 191 239
f 239 191 195
f 239 195 196
f 199 201 197
f 199 197 198
f 199 198 200
f 199 244 201
f 199 200 202
f 199 202 247
f 247 202 203
f 207 204 205
f 207 253 204
f 207 205 206
f 207 206 208
f 207 208 209
f 207 209 253
f 257 210 211
f 257 211 214
f 264 215 216
f 264 216 217
f 221 218 220
f 221 220 219
f 221 219 222
f 221 269 218
f 221 222 332
f 225 224 223
f 225 227 224
f 225 226 227
f 229 230 228
f 229 231 230
f 229 232 231
f 234 235 233
f 234 236 235
f 234 239 236
f 239 240 236
f 239 241 240
f 239 196 241
f 244 242 201
f 244 243 242
f 244 245 243
f 244 246 245
f 199 247 244
f 244 248 246
f 244 247 248
f 247 203 249
f 247 249 248
f 253 250 204
f 253 251 250
f 253 209 252
f 253 254 251
f 253 252 255
f 253 255 254
f 257 256 210
f 257 258 256
f 257 262 258
f 257 214 262
f 264 263 215
f 264 265 263
f 264 266 265
f 264 217 266
f 269 267 218
f 269 268 267
f 269 270 268
f 269 271 270
f 221 332 269
f 269 332 271
f 317 277 315
f 317 278 277
f 317 318 278
f 321 279 320
f 321 280 279
f 321 324 280
f 350 301 282
f 326 281 325
f 326 282 281
f 326 350 282
f 288 332 286
f 288 286 287
f 288 287 289
f 288 289 290
f 288 290 334
f 363 294 313
f 339 291 292
f 339 292 293
f 306 348 299
f 309 298 346
f 348 300 299
f 350 302 301
f 306 304 307
f 306 305 304
f 306 303 305
f 306 307 356
f 306 299 303
f 309 308 314
f 309 310 308
f 309 311 310
f 309 359 311
f 363 313 312
f 309 314 298
f 317 315 316
f 317 316 319
f 317 319 318
f 321 320 322
f 321 322 323
f 321 323 324
f 350 328 351
f 326 325 327
f 326 327 328
f 326 328 350
f 288 334 332
f 334 333 332
f 334 290 337
f 334 336 333
f 334 335 336
f 334 337 335
f 339 338 291
f 363 364 342
f 339 340 338
f 339 293 341
f 339 341 340
f 363 342 294
f 348 356 347
f 348 349 300
f 348 347 349
f 350 351 352
f 350 352 302
f 356 307 353
f 356 353 355
f 356 355 357
f 356 357 354
f 306 356 348
f 356 354 347
f 359 358 311
f 359 365 360
f 359 361 358
f 359 360 361
f 363 312 362
f 363 362 364
f 309 346 359
f 359 346 365
f 1 21 3
f 1 3 8
f 2 3 32
f 2 14 3
f 3 4 8
f 1 8 7
f 1 7 10
f 1 5 23
f 1 6 5
f 1 44 6
f 1 10 45
f 2 11 14
f 2 13 11
f 2 15 13
f 2 17 16
f 2 16 54
f 2 62 15
f 3 60 20
f 3 19 18
f 3 20 4
f 3 14 19
f 3 18 63
f 22 92 3
f 21 22 3
f 1 23 21
f 21 25 22
f 92 93 3
f 93 94 3
f 22 31 92
f 21 23 64
f 21 24 25
f 21 74 24
f 22 27 29
f 22 29 28
f 22 28 31
f 22 25 26
f 22 26 68
f 92 31 132
f 22 75 27
f 32 3 33
f 33 3 34
f 2 32 17
f 32 33 38
f 34 3 184
f 184 3 185
f 33 34 40
f 32 35 17
f 32 36 35
f 32 78 36
f 32 38 37
f 32 37 80
f 33 84 38
f 33 39 85
f 33 40 39
f 34 223 40
f 1 45 61
f 1 61 44
f 63 48 41
f 61 64 43
f 61 43 44
f 61 46 48
f 61 45 46
f 2 54 62
f 62 49 15
f 62 54 56
f 62 53 51
f 62 52 49
f 62 51 52
f 3 63 60
f 63 18 57
f 63 57 59
f 63 41 60
f 63 59 53
f 61 48 63
f 62 63 53
f 62 89 61
f 62 61 63
f 21 64 74
f 74 67 65
f 74 65 24
f 22 68 75
f 75 68 67
f 75 69 27
f 75 70 69
f 75 72 70
f 75 73 72
f 143 132 73
f 61 74 64
f 74 75 67
f 74 61 75
f 75 61 143
f 75 143 73
f 143 61 144
f 32 89 78
f 32 80 89
f 89 56 76
f 89 79 78
f 89 76 79
f 89 80 81
f 90 81 83
f 33 90 84
f 33 85 90
f 90 83 84
f 90 85 86
f 90 86 88
f 91 88 223
f 62 56 89
f 89 81 90
f 89 90 61
f 90 91 61
f 90 88 91
f 91 237 61
f 237 238 61
f 94 104 3
f 92 95 93
f 93 101 94
f 94 103 104
f 104 105 3
f 105 106 3
f 106 124 3
f 92 132 95
f 93 95 96
f 93 96 98
f 93 98 99
f 93 99 137
f 93 100 101
f 93 144 100
f 94 101 102
f 94 102 141
f 94 145 103
f 104 110 105
f 105 117 106
f 104 112 109
f 104 109 110
f 104 103 107
f 104 107 108
f 105 110 113
f 104 108 166
f 104 166 112
f 105 113 114
f 105 115 116
f 105 155 115
f 105 116 117
f 105 114 167
f 106 117 118
f 106 118 120
f 106 120 121
f 106 121 158
f 106 122 123
f 106 168 122
f 124 125 3
f 125 274 3
f 274 275 3
f 275 276 3
f 106 123 124
f 124 128 125
f 125 131 274
f 124 123 126
f 124 126 127
f 124 127 171
f 124 173 128
f 125 128 129
f 125 129 177
f 125 178 130
f 125 130 131
f 274 131 315
f 93 137 144
f 143 133 132
f 144 138 100
f 144 140 138
f 144 136 133
f 144 135 136
f 144 137 135
f 94 141 145
f 145 141 140
f 145 142 103
f 143 144 133
f 144 61 145
f 145 61 166
f 166 61 167
f 144 145 140
f 145 166 142
f 167 61 168
f 168 61 182
f 166 147 142
f 166 108 148
f 166 148 147
f 166 149 112
f 166 150 149
f 166 152 150
f 167 153 152
f 105 167 155
f 167 154 153
f 167 114 154
f 167 156 155
f 167 159 156
f 106 158 168
f 168 163 122
f 168 165 163
f 168 161 159
f 168 158 162
f 168 162 161
f 166 167 152
f 167 168 159
f 182 61 183
f 183 61 329
f 329 61 330
f 330 61 331
f 124 171 182
f 124 182 173
f 182 169 165
f 182 171 172
f 182 172 169
f 182 174 173
f 182 176 174
f 125 177 183
f 125 183 178
f 183 177 176
f 183 179 178
f 183 181 179
f 329 315 181
f 168 182 165
f 182 183 176
f 183 329 181
f 185 3 192
f 34 184 186
f 192 3 193
f 184 185 189
f 185 192 195
f 193 3 194
f 194 3 212
f 34 186 223
f 184 187 186
f 184 226 187
f 184 188 228
f 184 189 188
f 185 232 189
f 185 191 190
f 185 190 233
f 185 195 191
f 212 3 213
f 213 3 283
f 283 3 284
f 284 3 285
f 192 193 200
f 193 194 206
f 192 198 197
f 192 197 201
f 192 200 198
f 192 196 195
f 192 201 242
f 192 259 196
f 193 202 200
f 193 203 202
f 193 249 203
f 193 205 204
f 193 204 260
f 193 206 205
f 194 208 206
f 194 209 208
f 194 211 210
f 194 214 211
f 194 261 209
f 194 210 261
f 194 212 214
f 212 213 216
f 213 283 222
f 212 215 263
f 212 216 215
f 212 272 214
f 213 220 218
f 213 219 220
f 213 222 219
f 213 217 216
f 213 218 267
f 283 332 222
f 213 273 217
f 184 237 226
f 184 228 237
f 91 223 224
f 237 224 227
f 237 227 226
f 237 228 230
f 185 238 232
f 185 233 238
f 238 230 231
f 238 231 232
f 238 233 235
f 238 235 236
f 238 236 240
f 91 224 237
f 238 259 61
f 259 260 61
f 260 261 61
f 237 230 238
f 238 240 259
f 261 272 61
f 272 273 61
f 273 343 61
f 343 344 61
f 192 242 259
f 259 241 196
f 259 240 241
f 259 242 243
f 259 243 245
f 259 245 246
f 193 260 249
f 260 246 248
f 260 248 249
f 260 204 250
f 260 250 251
f 260 251 254
f 261 252 209
f 261 210 256
f 261 256 258
f 261 258 262
f 261 254 255
f 261 255 252
f 259 246 260
f 260 254 261
f 212 263 272
f 272 262 214
f 272 263 265
f 213 267 273
f 273 265 266
f 273 266 217
f 273 267 268
f 273 268 270
f 273 270 271
f 343 271 332
f 261 262 272
f 272 265 273
f 273 271 343
f 276 296 3
f 295 3 296
f 285 3 297
f 295 297 3
f 274 277 275
f 275 279 276
f 276 301 296
f 274 315 277
f 275 277 278
f 275 278 318
f 275 320 279
f 276 280 324
f 276 279 280
f 276 281 282
f 276 325 281
f 276 282 301
f 283 284 286
f 284 285 292
f 285 297 294
f 283 286 332
f 284 287 286
f 284 289 287
f 284 290 289
f 284 291 338
f 284 292 291
f 284 344 290
f 285 293 292
f 285 294 342
f 285 345 293
f 295 296 303
f 295 308 297
f 295 303 299
f 295 298 314
f 295 299 300
f 295 346 298
f 295 300 366
f 296 304 305
f 296 307 304
f 296 305 303
f 296 301 302
f 296 302 352
f 296 367 307
f 297 310 311
f 297 308 310
f 297 311 358
f 297 312 313
f 297 362 312
f 297 313 294
f 295 314 308
f 366 61 368
f 331 61 367
f 366 367 61
f 344 345 61
f 345 368 61
f 275 318 330
f 275 330 320
f 329 316 315
f 330 319 316
f 330 318 319
f 330 322 320
f 276 324 331
f 276 331 325
f 330 323 322
f 331 324 323
f 331 327 325
f 331 328 327
f 331 351 328
f 329 330 316
f 330 331 323
f 331 367 351
f 284 338 344
f 343 332 333
f 344 337 290
f 344 338 340
f 344 333 336
f 344 336 335
f 344 335 337
f 285 342 345
f 345 341 293
f 345 340 341
f 343 333 344
f 344 340 345
f 345 342 368
f 295 366 346
f 366 347 354
f 366 365 346
f 366 300 349
f 366 349 347
f 296 352 367
f 367 352 351
f 367 353 307
f 367 355 353
f 367 357 355
f 367 354 357
f 297 368 362
f 297 358 368
f 368 364 362
f 368 342 364
f 368 358 361
f 368 361 360
f 366 360 365
f 366 354 367
f 366 368 360

